<?xml version="1.0" standalone="no"?>
<!DOCTYPE svg PUBLIC "-//W3C//DTD SVG 20010904//EN"
 "http://www.w3.org/TR/2001/REC-SVG-20010904/DTD/svg10.dtd">
<svg version="1.0" xmlns="http://www.w3.org/2000/svg"
 width="225.000000pt" height="225.000000pt" viewBox="0 0 225.000000 225.000000"
 preserveAspectRatio="xMidYMid meet">

<g transform="translate(0.000000,225.000000) scale(0.100000,-0.100000)"
fill="#000000" stroke="none">
<path d="M0 1125 l0 -1125 1125 0 1125 0 0 1125 0 1125 -1125 0 -1125 0 0
-1125z m955 727 c21 -13 69 -83 154 -226 69 -114 128 -209 132 -212 5 -2 34
39 65 93 32 54 72 113 90 131 28 28 39 32 83 32 44 0 56 -4 85 -32 19 -18 145
-219 281 -446 263 -439 265 -444 230 -511 -30 -60 -44 -62 -455 -59 l-369 3
54 90 54 90 239 5 240 5 -174 290 c-96 159 -178 291 -182 293 -4 1 -86 -129
-182 -289 -185 -308 -244 -386 -327 -432 -94 -51 -142 -57 -446 -57 -302 0
-317 2 -352 56 -42 65 -44 62 289 615 170 283 318 525 330 538 40 44 110 54
161 23z"/>
<path d="M651 1216 c-127 -212 -231 -390 -231 -396 0 -9 54 -11 198 -8 271 5
273 6 421 251 44 74 81 140 81 147 0 14 -223 389 -231 390 -4 0 -111 -173
-238 -384z"/>
</g>
</svg>
